<svg height="63" width="60.148" xmlns="http://www.w3.org/2000/svg" xmlns:xlink="http://www.w3.org/1999/xlink"><filter id="a" filterUnits="userSpaceOnUse" height="63" width="60.148" x="0" y="0"><feOffset dy="3"/><feGaussianBlur result="blur" stdDeviation="3"/><feFlood flood-opacity=".161"/><feComposite in2="blur" operator="in"/><feComposite in="SourceGraphic"/></filter><g filter="url(#a)" transform="translate(0 .003)"><path d="m22.969 45a23.236 23.236 0 0 1 -8.941-1.768 22.925 22.925 0 0 1 -7.3-4.822 22.405 22.405 0 0 1 -4.928-7.152 22.141 22.141 0 0 1 .838-19.247 22.842 22.842 0 0 1 7.042-7.865v36.6h16.855a25.018 25.018 0 0 0 8.906-1.533 18.276 18.276 0 0 0 6.706-4.33 23.061 23.061 0 0 1 -19.178 10.117zm3.141-11.3h-7.844v-23h7.844a12.673 12.673 0 0 1 8.858 3.087 11.152 11.152 0 0 1 3.332 8.413 11.152 11.152 0 0 1 -3.332 8.414 12.673 12.673 0 0 1 -8.858 3.086zm14.551-25.548c-3.627-2.946-8.512-4.5-14.126-4.5h-16.111a23.321 23.321 0 0 1 30.239 4.5z" fill="#fff" transform="translate(9 6)"/></g></svg>