<svg xmlns="http://www.w3.org/2000/svg" width="260" height="28.204"><g id="site-logo" transform="translate(-59 -29)" fill="#fff"><path id="前面オブジェクトで型抜き_1" data-name="前面オブジェクトで型抜き 1" d="M14 35.2a13.9 13.9 0 01-7.215-2.01h8.848a14.228 14.228 0 008.847-2.739A13.97 13.97 0 0114 35.2zm-9.178-3.448a14.17 14.17 0 010-21.3zm10.54-3.117H10.33V13.771h5.032a8.094 8.094 0 015.682 1.994 7.233 7.233 0 012.138 5.439 7.234 7.234 0 01-2.138 5.439 8.093 8.093 0 01-5.682 1.99zm9.645-16.245a13.9 13.9 0 00-9.373-3.174H6.463a13.932 13.932 0 0113.76-.749 14.157 14.157 0 014.785 3.922z" transform="translate(59 22)"/><path id="DIGSMILE" d="M2.38-23.8h11.254a15.731 15.731 0 016.936 1.465 11.018 11.018 0 014.692 4.155 11.723 11.723 0 011.666 6.3 11.723 11.723 0 01-1.666 6.3 11.018 11.018 0 01-4.692 4.157A15.731 15.731 0 0113.634.042H2.38zM13.362-5.34a6.893 6.893 0 004.913-1.737 6.262 6.262 0 001.853-4.8 6.262 6.262 0 00-1.853-4.8 6.893 6.893 0 00-4.913-1.737h-4.25V-5.34zM30.634-23.8h6.732V.042h-6.732zm27.642 11.41h5.95v9.877a15.5 15.5 0 01-4.692 2.248 18.642 18.642 0 01-5.3.783A14.166 14.166 0 0147.5-1.065a11.8 11.8 0 01-4.692-4.411 12.18 12.18 0 01-1.7-6.4 12.18 12.18 0 011.7-6.4 11.747 11.747 0 014.726-4.411 14.514 14.514 0 016.834-1.584 15.2 15.2 0 015.984 1.124 11.536 11.536 0 014.42 3.236l-4.284 3.883a7.546 7.546 0 00-5.78-2.657 6.693 6.693 0 00-4.93 1.856 6.67 6.67 0 00-1.87 4.955 7.208 7.208 0 00.85 3.525 6.1 6.1 0 002.38 2.418 6.969 6.969 0 003.5.868 8.588 8.588 0 003.638-.783zM77.044.519a21.967 21.967 0 01-5.61-.719 13.786 13.786 0 01-4.42-1.9l2.21-4.973a14.289 14.289 0 003.706 1.7 14.086 14.086 0 004.148.647q3.876 0 3.876-1.941a1.607 1.607 0 00-1.105-1.516A20.3 20.3 0 0076.3-9.222a33.866 33.866 0 01-4.488-1.243 7.554 7.554 0 01-3.094-2.129 5.758 5.758 0 01-1.292-3.951 6.848 6.848 0 011.19-3.934 7.965 7.965 0 013.553-2.776 14.6 14.6 0 015.8-1.022 20.415 20.415 0 014.624.528A14.146 14.146 0 0186.6-22.2l-2.074 5.007a13.837 13.837 0 00-6.6-1.839 5.522 5.522 0 00-2.924.6 1.787 1.787 0 00-.918 1.55 1.536 1.536 0 001.088 1.43 19.646 19.646 0 003.5.988 32.762 32.762 0 014.5 1.243 7.779 7.779 0 013.094 2.112 5.646 5.646 0 011.309 3.934A6.714 6.714 0 0186.394-3.3a8.114 8.114 0 01-3.57 2.78 14.418 14.418 0 01-5.78 1.039zm35.292-.477l-.068-12.636-6.12 10.286h-2.992l-6.086-9.945V.042h-6.222V-23.8h5.542l8.364 13.76 8.16-13.76h5.542l.068 23.842zM123.454-23.8h6.732V.042h-6.732zm11.7 0h6.732v18.495h11.356V.042H135.15zm40.018 18.63V.042H156.06V-23.8h18.666v5.211h-12v4.019H173.3v5.041h-10.576v4.359z" transform="translate(89 55)"/><path id="INC." d="M1.54-15.4H5.9V0H1.54zm22.22 0V0h-3.586l-6.8-8.206V0H9.108v-15.4h3.586l6.8 8.206V-15.4zM34.628.308a9.114 9.114 0 01-4.345-1.023 7.65 7.65 0 01-3.025-2.849 7.858 7.858 0 01-1.1-4.136 7.858 7.858 0 011.1-4.136 7.65 7.65 0 013.025-2.849 9.114 9.114 0 014.345-1.023 9.326 9.326 0 013.806.748 7.323 7.323 0 012.816 2.16l-2.772 2.5a4.56 4.56 0 00-3.63-1.8 4.48 4.48 0 00-2.233.55A3.817 3.817 0 0031.1-10a4.773 4.773 0 00-.539 2.3 4.773 4.773 0 00.539 2.3 3.817 3.817 0 001.515 1.55 4.48 4.48 0 002.233.55 4.56 4.56 0 003.63-1.8l2.772 2.5a7.323 7.323 0 01-2.816 2.16 9.326 9.326 0 01-3.806.748zM45.1.2a2.462 2.462 0 01-1.782-.7 2.377 2.377 0 01-.726-1.782 2.35 2.35 0 01.715-1.782 2.5 2.5 0 011.793-.688 2.485 2.485 0 011.8.682 2.369 2.369 0 01.7 1.782 2.4 2.4 0 01-.715 1.782A2.452 2.452 0 0145.1.2z" transform="translate(271.392 55.205)"/></g></svg>